<?xml version="1.0" encoding="UTF-8" standalone="no"?>
<!-- Generator: Adobe Illustrator 19.0.0, SVG Export Plug-In . SVG Version: 6.00 Build 0)  -->

<svg
   xmlns:dc="http://purl.org/dc/elements/1.1/"
   xmlns:cc="http://creativecommons.org/ns#"
   xmlns:rdf="http://www.w3.org/1999/02/22-rdf-syntax-ns#"
   xmlns:svg="http://www.w3.org/2000/svg"
   xmlns="http://www.w3.org/2000/svg"
   xmlns:sodipodi="http://sodipodi.sourceforge.net/DTD/sodipodi-0.dtd"
   xmlns:inkscape="http://www.inkscape.org/namespaces/inkscape"
   version="1.1"
   id="Capa_1"
   x="0px"
   y="0px"
   viewBox="0 0 247.235 247.235"
   style="enable-background:new 0 0 247.235 247.235;"
   xml:space="preserve"
   sodipodi:docname="retweet.svg"
   inkscape:version="0.92.4 (5da689c313, 2019-01-14)"><metadata
   id="metadata43"><rdf:RDF><cc:Work
       rdf:about=""><dc:format>image/svg+xml</dc:format><dc:type
         rdf:resource="http://purl.org/dc/dcmitype/StillImage" /><dc:title></dc:title></cc:Work></rdf:RDF></metadata><defs
   id="defs41" /><sodipodi:namedview
   pagecolor="#ffffff"
   bordercolor="#666666"
   borderopacity="1"
   objecttolerance="10"
   gridtolerance="10"
   guidetolerance="10"
   inkscape:pageopacity="0"
   inkscape:pageshadow="2"
   inkscape:window-width="1396"
   inkscape:window-height="1133"
   id="namedview39"
   showgrid="false"
   inkscape:pagecheckerboard="true"
   inkscape:zoom="0.9545574"
   inkscape:cx="123.6175"
   inkscape:cy="207.42598"
   inkscape:window-x="522"
   inkscape:window-y="49"
   inkscape:window-maximized="0"
   inkscape:current-layer="Capa_1" />
<g
   id="g6"
   style="fill:#718096;fill-opacity:1">
	<path
   d="m 204.912,183.175 h -165.2 v -39.771 h 21.712 c 2.196,0 4.216,-1.199 5.268,-3.127 1.052,-1.928 0.966,-4.276 -0.224,-6.122 L 38.756,91.133 c -1.104,-1.715 -3.004,-2.751 -5.044,-2.751 -2.04,0 -3.939,1.036 -5.044,2.751 L 0.956,134.154 c -1.189,1.846 -1.275,4.194 -0.224,6.122 1.051,1.928 3.072,3.127 5.268,3.127 h 21.712 v 45.771 c 0,3.313 2.686,6 6,6 h 171.2 c 3.313,0 6,-2.687 6,-6 0,-3.313 -2.686,-5.999 -6,-5.999 z m -171.2,-77.713 16.71,25.941 h -33.42 z"
   id="path2"
   inkscape:connector-curvature="0"
   style="fill:#718096;fill-opacity:1" />
	<path
   d="m 246.502,106.958 c -1.052,-1.928 -3.071,-3.127 -5.268,-3.127 H 219.522 V 58.06 c 0,-3.313 -2.687,-6 -6,-6 h -171.2 c -3.313,0 -6,2.687 -6,6 0,3.313 2.687,6 6,6 h 165.2 v 45.771 c 0,3.313 2.687,6 6,6 h 16.71 l -16.71,25.941 -22.669,-35.19 c -1.794,-2.786 -5.506,-3.59 -8.293,-1.795 -2.786,1.794 -3.59,5.508 -1.795,8.293 l 27.713,43.021 c 1.104,1.715 3.004,2.751 5.044,2.751 2.04,0 3.939,-1.036 5.044,-2.751 l 27.712,-43.021 c 1.19,-1.846 1.276,-4.194 0.224,-6.122 z"
   id="path4"
   inkscape:connector-curvature="0"
   style="fill:#718096;fill-opacity:1" />
</g>
<g
   id="g8">
</g>
<g
   id="g10">
</g>
<g
   id="g12">
</g>
<g
   id="g14">
</g>
<g
   id="g16">
</g>
<g
   id="g18">
</g>
<g
   id="g20">
</g>
<g
   id="g22">
</g>
<g
   id="g24">
</g>
<g
   id="g26">
</g>
<g
   id="g28">
</g>
<g
   id="g30">
</g>
<g
   id="g32">
</g>
<g
   id="g34">
</g>
<g
   id="g36">
</g>
</svg>