<?xml version="1.0" encoding="UTF-8" standalone="no"?>
<svg
   xmlns:dc="http://purl.org/dc/elements/1.1/"
   xmlns:cc="http://creativecommons.org/ns#"
   xmlns:rdf="http://www.w3.org/1999/02/22-rdf-syntax-ns#"
   xmlns:svg="http://www.w3.org/2000/svg"
   xmlns="http://www.w3.org/2000/svg"
   xmlns:sodipodi="http://sodipodi.sourceforge.net/DTD/sodipodi-0.dtd"
   xmlns:inkscape="http://www.inkscape.org/namespaces/inkscape"
   enable-background="new 0 0 32 32"
   id="Слой_1"
   version="1.1"
   viewBox="0 0 16.018 15.887251"
   xml:space="preserve"
   sodipodi:docname="arrows-down.svg"
   width="16.018"
   height="15.887251"
   inkscape:version="0.92.4 (5da689c313, 2019-01-14)"><metadata
     id="metadata24"><rdf:RDF><cc:Work
         rdf:about=""><dc:format>image/svg+xml</dc:format><dc:type
           rdf:resource="http://purl.org/dc/dcmitype/StillImage" /><dc:title></dc:title></cc:Work></rdf:RDF></metadata><defs
     id="defs22" /><sodipodi:namedview
     pagecolor="#ffffff"
     bordercolor="#666666"
     borderopacity="1"
     objecttolerance="10"
     gridtolerance="10"
     guidetolerance="10"
     inkscape:pageopacity="0"
     inkscape:pageshadow="2"
     inkscape:window-width="1689"
     inkscape:window-height="1417"
     id="namedview20"
     showgrid="false"
     inkscape:pagecheckerboard="true"
     fit-margin-top="0"
     fit-margin-left="0"
     fit-margin-right="0"
     fit-margin-bottom="0"
     inkscape:zoom="7.375"
     inkscape:cx="8.0085"
     inkscape:cy="-8.3281859"
     inkscape:window-x="54"
     inkscape:window-y="-8"
     inkscape:window-maximized="0"
     inkscape:current-layer="Слой_1" /><g
     id="Double_Chevron_Down"
     transform="translate(-7.9915,-8.05575)"><path
       d="M 22.285,15.349 16,21.544 9.715,15.348 c -0.394,-0.391 -1.034,-0.391 -1.428,0 -0.394,0.391 -0.394,1.024 0,1.414 l 6.999,6.899 c 0.379,0.375 1.048,0.377 1.429,0 l 6.999,-6.9 c 0.394,-0.39 0.394,-1.024 0,-1.414 -0.395,-0.389 -1.035,-0.389 -1.429,0.002 z"
       id="path2"
       inkscape:connector-curvature="0"
       style="fill:#ffffff" /><path
       d="m 15.286,16.662 c 0.379,0.375 1.048,0.377 1.429,0 l 6.999,-6.899 c 0.394,-0.391 0.394,-1.024 0,-1.414 -0.394,-0.391 -1.034,-0.391 -1.428,0 L 16,14.544 9.715,8.349 c -0.394,-0.391 -1.034,-0.391 -1.428,0 -0.394,0.391 -0.394,1.024 0,1.414 z"
       id="path4"
       inkscape:connector-curvature="0"
       style="fill:#ffffff" /></g><g
     id="g7"
     transform="translate(-7.9915,-8.05575)" /><g
     id="g9"
     transform="translate(-7.9915,-8.05575)" /><g
     id="g11"
     transform="translate(-7.9915,-8.05575)" /><g
     id="g13"
     transform="translate(-7.9915,-8.05575)" /><g
     id="g15"
     transform="translate(-7.9915,-8.05575)" /><g
     id="g17"
     transform="translate(-7.9915,-8.05575)" /></svg>