<?xml version="1.0" encoding="UTF-8" standalone="no"?>
<svg
   xmlns:dc="http://purl.org/dc/elements/1.1/"
   xmlns:cc="http://creativecommons.org/ns#"
   xmlns:rdf="http://www.w3.org/1999/02/22-rdf-syntax-ns#"
   xmlns:svg="http://www.w3.org/2000/svg"
   xmlns="http://www.w3.org/2000/svg"
   xmlns:sodipodi="http://sodipodi.sourceforge.net/DTD/sodipodi-0.dtd"
   xmlns:inkscape="http://www.inkscape.org/namespaces/inkscape"
   enable-background="new 0 0 32 32"
   id="Слой_1"
   version="1.1"
   viewBox="0 0 32 32"
   xml:space="preserve"
   sodipodi:docname="close.svg"
   width="32"
   height="32"
   inkscape:version="0.92.4 (5da689c313, 2019-01-14)"><metadata
     id="metadata24"><rdf:RDF><cc:Work
         rdf:about=""><dc:format>image/svg+xml</dc:format><dc:type
           rdf:resource="http://purl.org/dc/dcmitype/StillImage" /></cc:Work></rdf:RDF></metadata><defs
     id="defs22" /><sodipodi:namedview
     pagecolor="#ffffff"
     bordercolor="#666666"
     borderopacity="1"
     objecttolerance="10"
     gridtolerance="10"
     guidetolerance="10"
     inkscape:pageopacity="0"
     inkscape:pageshadow="2"
     inkscape:window-width="1684"
     inkscape:window-height="1408"
     id="namedview20"
     showgrid="false"
     inkscape:zoom="7.375"
     inkscape:cx="16"
     inkscape:cy="16"
     inkscape:window-x="60"
     inkscape:window-y="0"
     inkscape:window-maximized="0"
     inkscape:current-layer="Слой_1" /><g
     id="Cancel"
     style="fill:#4a5568;fill-opacity:1"><path
       d="M 16,0 C 7.163,0 0,7.163 0,16 0,24.836 7.163,32 16,32 24.836,32 32,24.837 32,16 32,7.163 24.836,0 16,0 Z m 0,30 C 8.268,30 2,23.732 2,16 2,8.268 8.268,2 16,2 c 7.732,0 14,6.268 14,14 0,7.732 -6.268,14 -14,14 z"
       id="path2"
       inkscape:connector-curvature="0"
       style="clip-rule:evenodd;fill:#4a5568;fill-rule:evenodd;fill-opacity:1" /><path
       d="m 22.729,21.271 -5.268,-5.269 5.238,-5.195 c 0.395,-0.391 0.395,-1.024 0,-1.414 -0.394,-0.39 -1.034,-0.39 -1.428,0 l -5.231,5.188 -5.309,-5.31 c -0.394,-0.396 -1.034,-0.396 -1.428,0 -0.394,0.395 -0.394,1.037 0,1.432 l 5.301,5.302 -5.331,5.287 c -0.394,0.391 -0.394,1.024 0,1.414 0.394,0.391 1.034,0.391 1.429,0 l 5.324,-5.28 5.276,5.276 c 0.394,0.396 1.034,0.396 1.428,0 0.393,-0.394 0.393,-1.035 -0.001,-1.431 z"
       id="path4"
       inkscape:connector-curvature="0"
       style="clip-rule:evenodd;fill-rule:evenodd;fill:#4a5568;fill-opacity:1" /></g><g
     id="g7" /><g
     id="g9" /><g
     id="g11" /><g
     id="g13" /><g
     id="g15" /><g
     id="g17" /></svg>