<?xml version="1.0" encoding="UTF-8" standalone="no"?>
<!-- Generator: Adobe Illustrator 21.0.0, SVG Export Plug-In . SVG Version: 6.00 Build 0)  -->

<svg
   xmlns:dc="http://purl.org/dc/elements/1.1/"
   xmlns:cc="http://creativecommons.org/ns#"
   xmlns:rdf="http://www.w3.org/1999/02/22-rdf-syntax-ns#"
   xmlns:svg="http://www.w3.org/2000/svg"
   xmlns="http://www.w3.org/2000/svg"
   xmlns:sodipodi="http://sodipodi.sourceforge.net/DTD/sodipodi-0.dtd"
   xmlns:inkscape="http://www.inkscape.org/namespaces/inkscape"
   version="1.1"
   id="Layer_1"
   x="0px"
   y="0px"
   viewBox="0 0 94.387004 67.949"
   xml:space="preserve"
   sodipodi:docname="comment.svg"
   width="94.387001"
   height="67.948997"
   inkscape:version="0.92.4 (5da689c313, 2019-01-14)"><metadata
   id="metadata9"><rdf:RDF><cc:Work
       rdf:about=""><dc:format>image/svg+xml</dc:format><dc:type
         rdf:resource="http://purl.org/dc/dcmitype/StillImage" /></cc:Work></rdf:RDF></metadata><defs
   id="defs7" /><sodipodi:namedview
   pagecolor="#ffffff"
   bordercolor="#666666"
   borderopacity="1"
   objecttolerance="10"
   gridtolerance="10"
   guidetolerance="10"
   inkscape:pageopacity="0"
   inkscape:pageshadow="2"
   inkscape:window-width="640"
   inkscape:window-height="480"
   id="namedview5"
   showgrid="false"
   inkscape:zoom="2.3516986"
   inkscape:cx="47.370498"
   inkscape:cy="35.798502"
   inkscape:window-x="0"
   inkscape:window-y="0"
   inkscape:window-maximized="0"
   inkscape:current-layer="Layer_1" />
<path
   style="fill:#ffffff"
   d="M 89.21,0 H 52.712 C 49.855,0 47.531,2.324 47.531,5.181 V 9.535 H 6.654 C 2.985,9.535 0,12.52 0,16.19 v 30.723 c 0,3.668 2.985,6.652 6.654,6.652 h 6.391 v 12.884 c 0,0.594 0.35,1.131 0.893,1.372 0.195,0.086 0.401,0.128 0.606,0.128 0.366,0 0.728,-0.134 1.009,-0.39 L 30.956,53.565 H 57.76 c 3.668,0 6.653,-2.984 6.653,-6.652 v -14.61 h 7.273 l 10.877,9.881 c 0.282,0.256 0.643,0.39 1.009,0.39 0.205,0 0.412,-0.042 0.607,-0.128 0.543,-0.24 0.893,-0.778 0.893,-1.372 v -8.771 h 4.137 c 2.855,0 5.178,-2.325 5.178,-5.182 V 5.181 C 94.388,2.324 92.066,0 89.21,0 Z M 61.414,46.912 c 0,2.014 -1.639,3.652 -3.653,3.652 H 30.377 c -0.373,0 -0.732,0.139 -1.009,0.39 L 16.044,63.059 V 52.064 c 0,-0.829 -0.671,-1.5 -1.5,-1.5 H 6.653 c -2.015,0 -3.654,-1.638 -3.654,-3.652 V 16.189 c 0,-2.015 1.639,-3.655 3.654,-3.655 h 42.363 c 0.005,0 0.01,10e-4 0.015,10e-4 0.005,0 0.01,-10e-4 0.015,-10e-4 h 8.715 c 2.015,0 3.653,1.64 3.653,3.655 z M 91.388,27.121 c 0,1.203 -0.977,2.182 -2.178,2.182 h -5.637 c -0.828,0 -1.5,0.671 -1.5,1.5 v 6.882 l -8.798,-7.992 c -0.276,-0.25 -0.636,-0.39 -1.009,-0.39 H 64.413 V 16.19 c 0,-3.669 -2.985,-6.655 -6.653,-6.655 H 50.531 V 5.181 C 50.531,3.978 51.51,3 52.712,3 H 89.21 c 1.201,0 2.178,0.978 2.178,2.181 z"
   id="path2"
   inkscape:connector-curvature="0" />
</svg>