<?xml version="1.0" encoding="UTF-8" standalone="no"?>
<svg
   xmlns:sketch="http://www.bohemiancoding.com/sketch/ns"
   xmlns:dc="http://purl.org/dc/elements/1.1/"
   xmlns:cc="http://creativecommons.org/ns#"
   xmlns:rdf="http://www.w3.org/1999/02/22-rdf-syntax-ns#"
   xmlns:svg="http://www.w3.org/2000/svg"
   xmlns="http://www.w3.org/2000/svg"
   xmlns:sodipodi="http://sodipodi.sourceforge.net/DTD/sodipodi-0.dtd"
   xmlns:inkscape="http://www.inkscape.org/namespaces/inkscape"
   width="25"
   height="22"
   viewBox="0 0 25 22"
   version="1.1"
   id="svg11"
   sodipodi:docname="download.svg"
   inkscape:version="0.92.4 (5da689c313, 2019-01-14)">
  <metadata
     id="metadata15">
    <rdf:RDF>
      <cc:Work
         rdf:about="">
        <dc:format>image/svg+xml</dc:format>
        <dc:type
           rdf:resource="http://purl.org/dc/dcmitype/StillImage" />
        <dc:title>icon 92 inbox download</dc:title>
      </cc:Work>
    </rdf:RDF>
  </metadata>
  <sodipodi:namedview
     pagecolor="#ffffff"
     bordercolor="#666666"
     borderopacity="1"
     objecttolerance="10"
     gridtolerance="10"
     guidetolerance="10"
     inkscape:pageopacity="0"
     inkscape:pageshadow="2"
     inkscape:window-width="1853"
     inkscape:window-height="1057"
     id="namedview13"
     showgrid="false"
     fit-margin-top="0"
     fit-margin-left="0"
     fit-margin-right="0"
     fit-margin-bottom="0"
     inkscape:zoom="7.375"
     inkscape:cx="12"
     inkscape:cy="11"
     inkscape:window-x="59"
     inkscape:window-y="-8"
     inkscape:window-maximized="1"
     inkscape:current-layer="svg11" />
  <!-- Generator: Sketch 3.0.3 (7891) - http://www.bohemiancoding.com/sketch -->
  <title
     id="title2">icon 92 inbox download</title>
  <desc
     id="desc4">Created with Sketch.</desc>
  <defs
     id="defs6" />
  <g
     id="Page-1"
     sketch:type="MSPage"
     style="fill:none;fill-rule:evenodd;stroke:none;stroke-width:1"
     transform="translate(-4,-5)">
    <g
       id="icon-92-inbox-download"
       sketch:type="MSArtboardGroup"
       style="fill:#ffffff">
      <path
         d="M 16,16 12.75,12.75 12,13.5 16.5,18 21,13.5 20.25,12.75 17,16 V 5 h -1 z m 2,-5 h 5.400024 l 4.375,7 H 21 v 2.002087 C 21,21.101739 20.105737,22 19.002608,22 H 13.997392 C 12.895858,22 12,21.105504 12,20.002087 V 18 H 5.2249756 v 0 l 4.375,-7 H 15 V 10 H 9 L 4,18 V 18.5 27 H 29 V 18.5 18 l -5,-8 h -6 v 1 z m 4,8 h 6 v 7 H 5 v -7 h 6 v 1.5 c 0,1.380712 1.115274,2.5 2.49607,2.5 h 6.00786 C 20.882471,23 22,21.890338 22,20.5 V 19 Z"
         id="inbox-download"
         sketch:type="MSShapeGroup"
         inkscape:connector-curvature="0" />
    </g>
  </g>
</svg>
