<?xml version="1.0" encoding="UTF-8" standalone="no"?>
<svg
   xmlns:sketch="http://www.bohemiancoding.com/sketch/ns"
   xmlns:dc="http://purl.org/dc/elements/1.1/"
   xmlns:cc="http://creativecommons.org/ns#"
   xmlns:rdf="http://www.w3.org/1999/02/22-rdf-syntax-ns#"
   xmlns:svg="http://www.w3.org/2000/svg"
   xmlns="http://www.w3.org/2000/svg"
   xmlns:sodipodi="http://sodipodi.sourceforge.net/DTD/sodipodi-0.dtd"
   xmlns:inkscape="http://www.inkscape.org/namespaces/inkscape"
   width="20.710621"
   height="21.710121"
   viewBox="0 0 20.710621 21.710121"
   version="1.1"
   id="svg11"
   sodipodi:docname="search.svg"
   inkscape:version="0.92.4 (5da689c313, 2019-01-14)">
  <metadata
     id="metadata15">
    <rdf:RDF>
      <cc:Work
         rdf:about="">
        <dc:format>image/svg+xml</dc:format>
        <dc:type
           rdf:resource="http://purl.org/dc/dcmitype/StillImage" />
        <dc:title>icon 111 search</dc:title>
      </cc:Work>
    </rdf:RDF>
  </metadata>
  <sodipodi:namedview
     pagecolor="#ffffff"
     bordercolor="#666666"
     borderopacity="1"
     objecttolerance="10"
     gridtolerance="10"
     guidetolerance="10"
     inkscape:pageopacity="0"
     inkscape:pageshadow="2"
     inkscape:window-width="1054"
     inkscape:window-height="806"
     id="namedview13"
     showgrid="false"
     inkscape:zoom="7.375"
     inkscape:cx="4"
     inkscape:cy="5.4202437"
     inkscape:window-x="283"
     inkscape:window-y="235"
     inkscape:window-maximized="0"
     inkscape:current-layer="svg11" />
  <!-- Generator: Sketch 3.0.3 (7891) - http://www.bohemiancoding.com/sketch -->
  <title
     id="title2">icon 111 search</title>
  <desc
     id="desc4">Created with Sketch.</desc>
  <defs
     id="defs6" />
  <g
     id="Page-1"
     sketch:type="MSPage"
     style="fill:none;fill-rule:evenodd;stroke:none;stroke-width:1"
     transform="translate(-6,-5)">
    <g
       id="icon-111-search"
       sketch:type="MSArtboardGroup"
       style="fill:#a0aec0">
      <path
         d="M 19.427116,20.427116 C 18.03725,21.41748 16.336652,22 14.5,22 9.8055794,22 6,18.194421 6,13.5 6,8.8055794 9.8055794,5 14.5,5 c 4.694421,0 8.5,3.8055794 8.5,8.5 0,2.34721 -0.951395,4.47221 -2.489592,6.010408 l 5.997366,5.997366 C 26.782828,25.782828 26.776142,26.223858 26.5,26.5 c -0.278068,0.278068 -0.720377,0.279623 -0.992226,0.0078 z M 14.5,21 C 18.642136,21 22,17.642136 22,13.5 22,9.3578642 18.642136,6 14.5,6 10.357864,6 7,9.3578642 7,13.5 7,17.642136 10.357864,21 14.5,21 Z"
         id="search"
         sketch:type="MSShapeGroup"
         inkscape:connector-curvature="0" />
    </g>
  </g>
</svg>
