<?xml version="1.0" encoding="UTF-8" standalone="no"?>
<svg
   xmlns:sketch="http://www.bohemiancoding.com/sketch/ns"
   xmlns:dc="http://purl.org/dc/elements/1.1/"
   xmlns:cc="http://creativecommons.org/ns#"
   xmlns:rdf="http://www.w3.org/1999/02/22-rdf-syntax-ns#"
   xmlns:svg="http://www.w3.org/2000/svg"
   xmlns="http://www.w3.org/2000/svg"
   xmlns:sodipodi="http://sodipodi.sourceforge.net/DTD/sodipodi-0.dtd"
   xmlns:inkscape="http://www.inkscape.org/namespaces/inkscape"
   width="27.97444"
   height="26.994587"
   viewBox="0 0 27.97444 26.994587"
   version="1.1"
   id="svg11"
   sodipodi:docname="tag.svg"
   inkscape:version="0.92.4 (5da689c313, 2019-01-14)">
  <metadata
     id="metadata15">
    <rdf:RDF>
      <cc:Work
         rdf:about="">
        <dc:format>image/svg+xml</dc:format>
        <dc:type
           rdf:resource="http://purl.org/dc/dcmitype/StillImage" />
        <dc:title>icon 145 tag cord</dc:title>
      </cc:Work>
    </rdf:RDF>
  </metadata>
  <sodipodi:namedview
     pagecolor="#ffffff"
     bordercolor="#666666"
     borderopacity="1"
     objecttolerance="10"
     gridtolerance="10"
     guidetolerance="10"
     inkscape:pageopacity="0"
     inkscape:pageshadow="2"
     inkscape:window-width="914"
     inkscape:window-height="891"
     id="namedview13"
     showgrid="false"
     scale-x="0.5"
     inkscape:pagecheckerboard="true"
     borderlayer="false"
     inkscape:zoom="7.375"
     inkscape:cx="13.003743"
     inkscape:cy="35.665406"
     inkscape:window-x="543"
     inkscape:window-y="293"
     inkscape:window-maximized="0"
     inkscape:current-layer="svg11"
     fit-margin-top="0"
     fit-margin-left="0"
     fit-margin-right="0"
     fit-margin-bottom="0" />
  <!-- Generator: Sketch 3.0.3 (7891) - http://www.bohemiancoding.com/sketch -->
  <title
     id="title2">icon 145 tag cord</title>
  <desc
     id="desc4">Created with Sketch.</desc>
  <defs
     id="defs6" />
  <g
     id="Page-1"
     sketch:type="MSPage"
     style="fill:none;fill-rule:evenodd;stroke:none;stroke-width:1"
     transform="translate(-2.9962575,-2.9759044)">
    <g
       id="icon-145-tag-cord"
       sketch:type="MSArtboardGroup"
       style="fill:#A0AEC0">
      <path
         d="M 11.761174,6 H 17 l 13.380903,13.380903 c 0.783148,0.783148 0.787114,2.051056 0.0075,2.830631 l -7.176907,7.176907 c -0.778415,0.778416 -2.046892,0.776201 -2.830631,-0.0075 L 7,16 V 7.999615 C 7,7.0495294 7.6533144,6.263454 8.5321972,6.0545007 8.6962674,6.3197404 8.8313522,6.6354109 8.9254638,7.0034043 8.4073326,7.0460875 8,7.4846597 8,8.0084406 V 15.5 l 13.099858,13.171163 c 0.388525,0.39064 1.018496,0.390157 1.404437,0.0016 l 7.16359,-7.212492 c 0.387124,-0.389767 0.385222,-1.018861 -0.0059,-1.406734 L 16.5,7 H 11.99111 C 11.967496,6.8858083 11.943685,6.768251 11.919682,6.6472766 11.875266,6.4234257 11.822218,6.2076702 11.761174,6 Z m 0.719551,3.0000727 C 12.487144,9.0000243 12.493569,9 12.5,9 13.880712,9 15,10.119288 15,11.5 15,12.880712 13.880712,14 12.5,14 11.119288,14 10,12.880712 10,11.5 c 0,-0.160662 0.01516,-0.317784 0.04411,-0.470015 0.57795,1.276564 1.301085,1.841285 2.378493,1.975447 0.0058,7.28e-4 0.01183,-0.0015 0.01793,-0.0066 0.01973,7.8e-4 0.03955,0.0012 0.05947,0.0012 0.828427,0 1.5,-0.671573 1.5,-1.5 0,-0.685371 -0.459659,-1.263382 -1.087513,-1.442572 1.58e-4,-0.0074 -5.5e-5,-0.01161 -6.58e-4,-0.01248 C 12.782355,9.8567858 12.638106,9.5162489 12.480725,9.0000727 Z M 10.938803,6.8418981 C 10.072191,2.4742346 5.3835933,1.8594176 3.5766873,4.7339052 2.1277935,7.0388549 3.5613769,11 6,11 l 1e-7,-1 C 4.4481108,10 3.3517812,6.9707234 4.4233126,5.2660947 5.765919,3.1302307 9.2741344,3.5902638 9.957925,7.0365196 10.766835,11.113366 11.376935,12 13,12 v -1 c -0.993158,0 -1.334627,-0.496243 -2.061197,-4.1581019 z"
         id="tag-cord"
         sketch:type="MSShapeGroup"
         inkscape:connector-curvature="0" />
    </g>
  </g>
</svg>
